<?xml version="1.0" encoding="utf-8"?>
<!-- Generator: Adobe Illustrator 14.0.0, SVG Export Plug-In . SVG Version: 6.00 Build 43363)  -->
<!DOCTYPE svg PUBLIC "-//W3C//DTD SVG 1.1//EN" "http://www.w3.org/Graphics/SVG/1.1/DTD/svg11.dtd">
<svg version="1.1" id="Layer_1" xmlns="http://www.w3.org/2000/svg" xmlns:xlink="http://www.w3.org/1999/xlink" x="0px" y="0px"
	 width="406px" height="260px" viewBox="0 0 406 260" enable-background="new 0 0 406 260" xml:space="preserve">
<g>
	<g>
	</g>
</g>
<g>
</g>
<path fill="#87C763" d="M332.221,39.556l-45.683,15.038c-8.294-3.843-17.534-5.981-27.279-5.936
	c-35.478,0.166-64.104,29.063-63.938,64.556c0.166,35.478,29.062,64.104,64.54,63.938c35.479-0.166,64.107-29.06,63.942-64.539
	c-0.046-9.744-2.271-18.966-6.192-27.22L332.221,39.556z"/>
<text transform="matrix(1 -0.0047 0.0047 1 216.8584 141.6538)" fill="#FFFFFF" font-family="'Aharoni-Bold'" font-size="99.7151"> </text>
<g>
	<text transform="matrix(1 -0.0047 0.0047 1 334.5371 46.9966)" font-family="'FuturaBT-Medium'" font-size="15.0937">TM</text>
</g>
<g>
	<text transform="matrix(1 -0.0047 0.0047 1 334.5371 46.9966)" font-family="'FuturaBT-Medium'" font-size="15.0937">TM</text>
</g>
<g>
	
		<text transform="matrix(1 -0.0047 0.0047 1 57.9297 215.9482)" fill="#FFFFFF" font-family="'FuturaBT-Medium'" font-size="46.4772">Insight Mirror</text>
</g>
<g>
	
		<text transform="matrix(1 -0.0047 0.0047 1 334.5371 46.9966)" fill="#FFFFFF" font-family="'FuturaBT-Medium'" font-size="15.0937">TM</text>
</g>
<path fill="#FEC411" d="M122.296,45.841c-35.479,0.167-64.107,29.063-63.941,64.535c0.045,9.743,2.27,18.963,6.188,27.218
	l-14.607,45.825l45.684-15.039c8.293,3.844,17.533,5.982,27.279,5.938c35.475-0.166,64.104-29.063,63.938-64.542
	C186.671,74.303,157.772,45.677,122.296,45.841z"/>
<text transform="matrix(1 -0.0047 0.0047 1 103.291 144.5933)" fill="#FFFFFF" font-family="'Aharoni-Bold'" font-size="99.3044">I   </text>
<text transform="matrix(1 -0.0047 0.0047 1 216.8975 144.0625)" fill="#FFFFFF" font-family="'Aharoni-Bold'" font-size="99.7151">M</text>
<text transform="matrix(1 -0.0047 0.0047 1 308.1875 143.6362)" fill="#FFFFFF" font-family="'Aharoni-Bold'" font-size="99.3044"> </text>
</svg>
